<?xml version="1.0" encoding="utf-8"?>
<!-- Generator: Adobe Illustrator 22.0.0, SVG Export Plug-In . SVG Version: 6.00 Build 0)  -->
<svg version="1.1" id="Layer_1" xmlns="http://www.w3.org/2000/svg" xmlns:xlink="http://www.w3.org/1999/xlink" x="0px" y="0px"
	 viewBox="0 0 2290 2310" style="enable-background:new 0 0 2290 2310;" xml:space="preserve">
<style type="text/css">
	.st0{fill-rule:evenodd;clip-rule:evenodd;fill:#0D8380;}
	.st1{fill-rule:evenodd;clip-rule:evenodd;fill:#036D6A;}
	.st2{fill-rule:evenodd;clip-rule:evenodd;fill:url(#SVGID_1_);}
	.st3{fill-rule:evenodd;clip-rule:evenodd;fill:url(#SVGID_2_);}
	.st4{fill-rule:evenodd;clip-rule:evenodd;fill:url(#SVGID_3_);}
	.st5{fill-rule:evenodd;clip-rule:evenodd;fill:#F8702C;}
	.st6{fill-rule:evenodd;clip-rule:evenodd;fill:#D86428;}
	.st7{fill-rule:evenodd;clip-rule:evenodd;fill:#FFE2FF;}
	.st8{fill-rule:evenodd;clip-rule:evenodd;fill:url(#SVGID_4_);}
	.st9{fill-rule:evenodd;clip-rule:evenodd;fill:url(#SVGID_5_);}
	.st10{fill-rule:evenodd;clip-rule:evenodd;fill:#F3B898;}
	.st11{fill-rule:evenodd;clip-rule:evenodd;fill:#3E3E95;}
	.st12{fill-rule:evenodd;clip-rule:evenodd;fill:#373684;}
	.st13{fill-rule:evenodd;clip-rule:evenodd;fill:#2B266C;}
	.st14{fill-rule:evenodd;clip-rule:evenodd;fill:#D28665;}
	.st15{fill-rule:evenodd;clip-rule:evenodd;fill:#131D38;}
	.st16{fill-rule:evenodd;clip-rule:evenodd;fill:#2D3B5C;}
	.st17{fill-rule:evenodd;clip-rule:evenodd;fill:none;stroke:#FF0000;stroke-width:0.8496;stroke-miterlimit:2.6131;}
	.st18{fill-rule:evenodd;clip-rule:evenodd;fill:#05706D;}
	.st19{fill-rule:evenodd;clip-rule:evenodd;fill:url(#SVGID_6_);}
	.st20{fill-rule:evenodd;clip-rule:evenodd;fill:url(#SVGID_7_);}
	.st21{fill-rule:evenodd;clip-rule:evenodd;fill:url(#SVGID_8_);}
	.st22{fill-rule:evenodd;clip-rule:evenodd;fill:url(#SVGID_9_);}
	.st23{fill-rule:evenodd;clip-rule:evenodd;fill:#00FFB8;}
	.st24{fill-rule:evenodd;clip-rule:evenodd;fill:#005F5C;}
	.st25{fill-rule:evenodd;clip-rule:evenodd;fill:#E5E5E5;}
	.st26{fill-rule:evenodd;clip-rule:evenodd;fill:#CECFCF;}
	.st27{fill-rule:evenodd;clip-rule:evenodd;fill:#D06026;}
	.st28{fill-rule:evenodd;clip-rule:evenodd;fill:#4E6BF4;}
	.st29{fill:none;}
</style>
<g>
	<path class="st0" d="M1100.6,1633c-10.4-12.4-24.2-30.4-27.8-45.1c-3.7-14.7,2.8-26.2,10.6-42.8c7.8-16.6,17-38.2,16.1-53.1
		c-0.9-15-12-23.2-20.9-33.1c-9-9.9-15.9-21.4-19.3-32.2c-3.5-10.8-3.5-20.9,2.1-29.4c5.5-8.5,16.6-15.4,23-25.1
		c6.4-9.7,8.3-22.1,6-33.4c-2.3-11.3-8.7-21.4-13.6-32c-4.8-10.6-8.1-21.6-8.1-34.5c0-12.9,3.2-27.6,11-39.3
		c7.8-11.7,20.2-20.5,32.9-20.9c12.7-0.5,25.5,7.4,37,24.2c11.5,16.8,21.6,42.6,27.4,66c5.8,23.5,7.1,44.6,3.7,59.1
		c-3.5,14.5-11.7,22.3-15.4,33.4c-3.7,11-2.8,25.3,0.2,36.1c3,10.8,8.1,18.2,13.8,30.3c5.8,12.1,12.3,29.1,10.5,44.5
		c-1.8,15.4-12,29.3-17.4,38.3c-5.4,9-6,13-6.2,23.6c-0.2,10.6-0.1,27.7-2.6,40.6c-2.5,12.9-7.5,21.7-12.1,29
		c-4.6,7.4-8.7,13.3-13.1,16.8c-4.4,3.5-9,4.4-14.7,1.4C1117.8,1652.3,1110.9,1645.4,1100.6,1633z"/>
	<path class="st1" d="M1100.6,1633c-10.4-12.4-24.2-30.4-27.8-45.1c-3.7-14.7,2.8-26.2,10.6-42.8c7.8-16.6,17-38.2,16.1-53.1
		c-0.9-15-12-23.2-20.9-33.1c-9-9.9-15.9-21.4-19.3-32.2c-1.5-4.7-2.4-9.3-2.4-13.7c53.8-6.2,94.4-21.2,121.8-45
		c-4,10.5-10.3,17.5-13.4,26.7c-3.7,11-2.8,25.3,0.2,36.1c3,10.8,8.1,18.2,13.8,30.3c5.8,12.1,12.3,29.1,10.5,44.5
		c-1.8,15.4-12,29.3-17.4,38.3c-5.4,9-6,13-6.2,23.6c-0.2,10.6-0.1,27.7-2.6,40.6c-2.5,12.9-7.5,21.7-12.1,29
		c-4.6,7.4-8.7,13.3-13.1,16.8c-4.4,3.5-9,4.4-14.7,1.4C1117.8,1652.3,1110.9,1645.4,1100.6,1633z"/>
	<path class="st0" d="M1083,1671c6.1-10.2,12.9-26.9,16.1-43.8c3.2-16.9,2.7-34-1.6-44.8c-4.3-10.8-12.5-15.4-21.5-21.4
		c-9-6.1-19-13.6-22.2-26.1c-3.3-12.5,0.2-29.9,2.8-42.7c2.6-12.9,4.4-21.2,1.4-29.8c-3-8.6-10.8-17.5-19.3-23.4
		c-8.5-5.9-17.6-8.9-21.7-17.3c-4.1-8.4-3.1-22.3-1.9-32.6c1.2-10.4,2.6-17.2-0.5-23.3c-3.1-6-10.7-11.3-20.1-15.9
		c-9.5-4.7-20.8-8.8-32.3-6.9c-11.6,1.9-23.3,9.8-30.2,23.8c-6.9,14.1-8.9,34.3-5,47.4c4,13.2,13.9,19.3,24.1,26.7
		c10.2,7.4,20.6,16.1,25.4,24.4c4.8,8.4,4.1,16.4,0.9,26.3c-3.3,9.9-9.1,21.5-11.1,29.6c-2,8.1-0.3,12.6,4.6,18.1
		c5,5.5,13.2,11.9,21.3,17.5c8.1,5.6,16,10.3,20.7,16.5c4.7,6.2,6.1,13.9,7,22.7c1,8.9,1.5,18.9,4.1,27.2c2.6,8.3,7.4,15,14.8,25.5
		c7.4,10.5,17.6,25,25.3,30.4C1071.6,1684.8,1076.9,1681.2,1083,1671z"/>
	<path class="st1" d="M1083,1671c6.1-10.2,12.9-26.9,16.1-43.8c3.2-16.9,2.7-34-1.6-44.8c-4.3-10.8-12.5-15.4-21.5-21.4
		c-9-6.1-19-13.6-22.2-26.1c-3.3-12.5,0.2-29.9,2.8-42.7c0.6-3,1.2-5.7,1.6-8.3c-36.4-6.5-67.5-17.1-93.4-31.8
		c4.9,4.4,9,8.9,11.6,13.4c4.8,8.4,4.1,16.4,0.9,26.3c-3.3,9.9-9.1,21.5-11.1,29.6c-2,8.1-0.3,12.6,4.6,18.1
		c5,5.5,13.2,11.9,21.3,17.5c8.1,5.6,16,10.3,20.7,16.5c4.7,6.2,6.1,13.9,7,22.7c1,8.9,1.5,18.9,4.1,27.2c2.6,8.3,7.4,15,14.8,25.5
		c7.4,10.5,17.6,25,25.3,30.4C1071.6,1684.8,1076.9,1681.2,1083,1671z"/>
	<path class="st0" d="M1181.4,1571.2c-5.2-8.7-11-23.1-13.8-37.6c-2.7-14.5-2.3-29.1,1.4-38.4c3.7-9.3,10.7-13.2,18.4-18.4
		c7.8-5.2,16.3-11.7,19-22.3c2.8-10.7-0.1-25.6-2.4-36.6c-2.2-11-3.8-18.2-1.2-25.5c2.6-7.4,9.3-15,16.5-20
		c7.3-5.1,15.1-7.6,18.6-14.8c3.5-7.2,2.6-19.1,1.6-27.9c-1-8.9-2.2-14.8,0.4-19.9c2.7-5.2,9.1-9.7,17.2-13.6
		c8.1-4,17.8-7.5,27.7-5.9c9.9,1.6,20,8.4,25.9,20.4c5.9,12,7.6,29.4,4.3,40.6c-3.4,11.3-11.9,16.5-20.6,22.8
		c-8.7,6.3-17.6,13.8-21.8,20.9c-4.1,7.2-3.5,14.1-0.7,22.5c2.8,8.4,7.8,18.4,9.5,25.4c1.8,6.9,0.3,10.8-4,15.5
		c-4.3,4.7-11.3,10.2-18.2,15c-6.9,4.8-13.7,8.8-17.7,14.1c-4,5.3-5.2,11.9-6,19.5c-0.8,7.6-1.3,16.2-3.5,23.3
		c-2.3,7.1-6.3,12.8-12.7,21.8c-6.4,9-15.1,21.4-21.7,26.1C1191.1,1583,1186.6,1579.9,1181.4,1571.2z"/>
	<path class="st1" d="M1181.4,1571.2c-5.2-8.7-11-23.1-13.8-37.6c-2.7-14.5-2.3-29.1,1.4-38.4c3.7-9.3,10.7-13.2,18.4-18.4
		c7.8-5.2,16.3-11.7,19.1-22.3c2.8-10.7-0.1-25.6-2.4-36.6c-2.2-11-3.8-18.2-1.2-25.5c2.6-7.4,9.3-15,16.5-20
		c0.4-0.3,0.8-0.5,1.1-0.8c18.8,4.2,35.6,13.5,50.2,27.9c-1.8,5.6-0.9,11.4,1.3,18c2.8,8.4,7.8,18.4,9.5,25.4
		c1.8,6.9,0.3,10.8-4,15.5c-4.3,4.7-11.3,10.2-18.2,15c-6.9,4.8-13.7,8.8-17.7,14.1c-4,5.3-5.2,11.9-6,19.5
		c-0.8,7.6-1.3,16.2-3.5,23.3c-2.3,7.1-6.3,12.8-12.7,21.8c-6.4,9-15.1,21.4-21.7,26.1C1191.1,1583,1186.6,1579.9,1181.4,1571.2z"/>
	<linearGradient id="SVGID_1_" gradientUnits="userSpaceOnUse" x1="1366.0388" y1="669.3508" x2="3316.1333" y2="669.3508">
		<stop  offset="0" style="stop-color:#6888C5"/>
		<stop  offset="1" style="stop-color:#83CDBC"/>
	</linearGradient>
	<path class="st2" d="M3316.1,101.4c0,674.8,0,1012.2,0,1012.2c-66.8-60.6-682.1,110.5-774.2,110.5c-147.7-0.1-215-92-297.7-89.7
		c-111.7,3-162.6,106.4-266,103c-153.8-5.1-238.9-216.4-425-83.8c0,0-62.4-73.2-187.3-219.7c17.1-87,138.1-95.6,197.3-141.9
		c107-83.8-3.4-217.9,89.9-338.4c94.1-121.6,216-31.9,308.8-130.1c69.1-73.1-15-115.4,77.3-139.4
		C2525.9,183.8,3316.1,101.4,3316.1,101.4z"/>
	<linearGradient id="SVGID_2_" gradientUnits="userSpaceOnUse" x1="2685.7776" y1="408.4878" x2="3742.3601" y2="408.4878">
		<stop  offset="0" style="stop-color:#6888C5"/>
		<stop  offset="1" style="stop-color:#83CDBC"/>
	</linearGradient>
	<path class="st3" d="M3742.4,311.2v69.3c-120.4,51.9-837.2,147.1-1056.6,120.8c0.5-37.4,7-73.6,18.5-107.6L3742.4,311.2z"/>
	<linearGradient id="SVGID_3_" gradientUnits="userSpaceOnUse" x1="2562.2317" y1="405.7091" x2="2463.6235" y2="778.2281">
		<stop  offset="0" style="stop-color:#6888C5"/>
		<stop  offset="1" style="stop-color:#83CDBC"/>
	</linearGradient>
	<path class="st4" d="M3316.1,353.3v762.3c-66.8-60.6-682.1,110.5-774.2,110.5c-147.7-0.1-215-92-297.7-89.7
		c-111.7,3-162.6,106.4-266,103c-153.8-5.1-238.9-216.4-425-83.8l-100.3-117.6c88.7-73.8,159.1-23.9,225.5-61.5
		c79.5-45,45.7-159.4,120.6-219.5c52.8-42.4,181.3,27.6,320.3-27.6c123.2-48.9,91.8-137.8,193.2-175.3
		c83.5-30.9,163.8,59.2,272.2,42.6C2707,577.7,3316.1,353.3,3316.1,353.3z"/>
	<path class="st5" d="M1359.5,1444.4c-79.7,37.2-180,58.5-246.5,109.6c-66.5,51.1-99.3,132.1-106.9,210.4
		c-7.6,78.2,10,153.6,59.6,214.5c49.6,60.8,131.2,107,246.7,133.6c115.4,26.6,264.7,33.5,402.3,5.1
		c137.6-28.4,263.7-92.2,363.2-211.4c99.5-119.2,172.4-293.9,205.8-477.7c33.4-183.8,27.3-376.7-40.3-488.9
		c-67.7-112.2-196.9-143.7-291.9-139.2c-95,4.5-155.7,45-215.6,134.4c-59.9,89.4-119.1,227.8-178.2,323.5
		C1498.4,1354,1439.2,1407.2,1359.5,1444.4z"/>
	<path class="st6" d="M2214.5,1669.7c30.4-75.6,53.9-157.5,69.1-241.3c33.4-183.8,27.3-376.7-40.3-488.9
		c-43.9-72.8-113.6-111.6-183.2-128.7C2207.6,1037.6,2259.1,1323.9,2214.5,1669.7z"/>
	<path class="st7" d="M2111.7,1861.9c13.9-19.6,27.1-40.3,39.7-61.9c-38.1-84.8-123.3-133.6-255.5-146.4
		c-157.9-15.3-186-27.1-317.8-135.5c-26.2-67.1-71.2-108.7-134.9-124.9c-14.4,11.5-29.5,21.8-45.3,31.1v0
		c68.6,11.5,111.4,49.2,128.4,113.1c75.6,93.8,173.4,146.6,293.6,158.6C1968.8,1698.7,2066.1,1754.1,2111.7,1861.9z"/>
	<path class="st7" d="M1160.3,1524.5c-17,8.7-32.9,18.4-47.3,29.4c-1.2,0.9-2.4,1.8-3.5,2.8c50.2-10.2,106.9,19.1,170.1,88.1
		c18,106.5,81.9,177.2,191.7,212c96.5,51.8,155.8,142.3,178.1,271.4c21.9-2.8,43.8-6.4,65.3-10.8c12.6-2.6,25.1-5.5,37.5-8.7
		c-20.5-126-86.4-215.4-197.7-268.3c-167.1-58.1-243-141.9-227.6-251.4C1272.9,1547.5,1217.4,1526,1160.3,1524.5z"/>
	<path class="st7" d="M1310,1465c-31.5,12-64.3,23.1-95.7,35.5c63.2-23.4,134.8,0.3,171.3,57.8c22.1,122.8,113.6,221.6,234.3,252.9
		c71.5-20.8,148.7-2.6,203.5,48c54.7,50.5,79,126,64.1,199c25.4-12.9,50.1-27.6,73.9-44.4c4.1-66.8-18.9-132.5-63.7-182.2
		c-44.8-49.7-107.7-79.4-174.6-82.4c-136,13.9-259.1-81.1-280-216.2C1414.4,1487.9,1363.5,1461.8,1310,1465L1310,1465z"/>
	<path class="st6" d="M1006.6,1759.8c-0.2,1.5-0.3,3-0.5,4.6c-7.6,78.2,10,153.6,59.6,214.5c30.4,37.3,72.9,69.1,127.9,94.3
		c118.3-0.6,233.7-9.1,346.2-25.5C1264.7,1978.2,1087,1882.3,1006.6,1759.8z"/>
	<path class="st6" d="M1170,2061.5c39.9,21.1,87.3,38.2,142.4,50.9c115.4,26.6,264.7,33.5,402.3,5.1
		c137.6-28.4,263.7-92.2,363.2-211.4c99.5-119.2,172.4-293.9,205.8-477.7c9.5-52,15.7-104.7,18.4-156.2
		C2175.9,1842.7,1798.5,2105.7,1170,2061.5z"/>
	<path class="st6" d="M1380.5,1525c-88,38.2-129.2,139.9-92.6,228.6c36.6,88.7,137.5,131.7,226.9,96.7
		c435.2-98.4,592.1-430.6,557.3-637.6l0,0c-39.4-334.6-221.1-363.6-348.9-132.9c15.6,37.8,39.8,70.9,70.3,96.9
		C1632.6,1382.6,1495,1498.7,1380.5,1525z"/>
	<linearGradient id="SVGID_4_" gradientUnits="userSpaceOnUse" x1="1366.0388" y1="594.0001" x2="2506.3264" y2="594.0001">
		<stop  offset="0" style="stop-color:#6888C5"/>
		<stop  offset="1" style="stop-color:#83CDBC"/>
	</linearGradient>
	<path class="st8" d="M1422.7,1002.2l-56.6-66.4c17.1-87,138.1-95.6,197.3-141.9c107-83.8-3.4-217.9,89.9-338.4
		c94.1-121.6,214.1-35.7,304.5-136.1c47.5-52.8-7.7-133.4,81.6-133.4h467c-86.7,197.3-258.4,30.5-387.6,170
		c-84,90.7-12.8,247.8-101,290.5c-55.4,26.8-209.1-27.3-282.6,42.3c-98.9,93.8-55.9,123.4-108.4,192.2
		C1603.1,911.8,1484.2,890.6,1422.7,1002.2z"/>
	<linearGradient id="SVGID_5_" gradientUnits="userSpaceOnUse" x1="1847.4526" y1="365.5813" x2="1947.3848" y2="585.4321">
		<stop  offset="0" style="stop-color:#6888C5"/>
		<stop  offset="0.998" style="stop-color:#83CDBC"/>
	</linearGradient>
	<path class="st9" d="M1422.7,1002.2l-56.6-66.4c1.6-8,4-15.3,7.2-22c7.6-4.7,15.8-8.9,24.5-12.5c83.3-34.8,136.4,9.9,198.7-46.1
		c54.8-49.2,18.9-175.6,135.4-242.4c103.3-59.2,159.2,0.4,249.5-51.6c69.4-39.9,12.2-131,131-271.4
		c61.5-72.7,151.5-91.1,228.6-103.9h165.4c-86.7,197.3-258.4,30.5-387.6,170c-84,90.7-12.8,247.8-101,290.5
		c-55.4,26.8-209.1-27.3-282.6,42.3c-98.9,93.8-55.9,123.4-108.4,192.2C1603.1,911.8,1484.2,890.6,1422.7,1002.2z"/>
	<path class="st10" d="M948.7,1944.8c-16,11.3-28.5,19-28.5,19c-39.4-14.5-44.6-43.9-42-62.8c13.6-13.1,24.9-22.4,24.9-22.4
		C908.4,1908.8,923.6,1930.9,948.7,1944.8z"/>
	<path class="st11" d="M1761,1693c-18,69.1-133.1,130.9-345.2,185.5l-179.3-38.4c5-19.4,27.1-27.4,84.3-74.6
		c12-9.9,25.3-20.9,39.8-32.8c0,0-37.4-4.6-112.2-13.8c-42.6,40.9-144.9,118.5-307.1,232.9c-21.2-14.5-38.3-42.3-47-72.7
		c63.6-86.5,129.1-165,194.4-240.9c57.5-66.8,48.8-62.9,136.2-84.6c98.6-24.4,203.1-37.8,313.4-40.2
		C1686.8,1633.2,1761,1693,1761,1693z"/>
	<path class="st12" d="M1431,1862.5c0,0-74.3,96.3-222.9,288.8c-33.3-3.5-61.9-25.2-74.5-56.2l90.5-193.7
		C1295.2,1905.9,1364.2,1892.9,1431,1862.5z"/>
	<path class="st12" d="M1619.1,1578.7L1761,1693c-18.1,69.4-134.3,131.6-348.6,186.4c100.4-34.3,194.5-87.3,282.4-159
		c-28.9-2.9-65.5-46-110-129.2C1596.1,1586.3,1607.5,1582.1,1619.1,1578.7z"/>
	<path class="st12" d="M1360.6,1732.8c0,0-37.4-4.6-112.2-13.8c-42.5,40.9-144.9,118.5-307.1,232.9c-21.2-14.5-38.3-42.3-47-72.7
		c51.2-69.7,103.7-134.2,156.3-196.3c53.2,30.6,112,32,176.3,4c0,0,119.3-31.9,357.9-95.7c9.4,9.4,14.2,14.1,14.2,14.1
		S1519.5,1647.8,1360.6,1732.8z"/>
	<path class="st13" d="M1360.6,1732.8c0,0-37.4-4.6-112.2-13.8c233.7-75.7,350.5-113.6,350.5-113.6S1519.5,1647.8,1360.6,1732.8z"/>
	<path class="st13" d="M1248.5,1719c-42.5,40.9-144.9,118.5-307.1,232.9c-19.8-13.6-36.1-38.7-45.2-66.8L1248.5,1719z"/>
	<path class="st10" d="M1919.3,914c-7.1,18.9-16.3,37.3-27.6,55.2c0,0-1.5,21-4.9,70.2c-15.8,7.5-61.1,6.5-67.2-8.5l-4.2-50.9
		c-15,4.3-22.4,6.5-22.4,6.5c-15.8,1.1-32.3-15-49.6-48.3c-10.9-69.9-16.4-104.8-16.4-104.8c6.9-44.1,40.3-79.4,84-88.6
		c43.7-9.2,88.6,9.6,112.6,47.2C1947.6,829.6,1945.9,878.2,1919.3,914z"/>
	<path class="st14" d="M1818.5,1018.9l-3.2-38.9c28.4-10.9,44.9-25.8,49.6-44.6c-4.9,72.4-7.3,108.6-7.3,108.6
		c-15-1.1-28.6-9-36.9-21.6C1819.9,1021.3,1819.2,1020.1,1818.5,1018.9z"/>
	<path class="st15" d="M1713.9,799.3c2.9,48.9,41,73.6,114.3,74.2c-7.5-8.3-11.2-12.5-11.2-12.5c15.8,9.5,23.7,14.2,23.7,14.2
		c5.2,2.6,7.8,3.9,7.8,3.9c9.8,28.5,14.7,42.7,14.7,42.7c1.4-27.9,2.2-41.8,2.2-41.8c8.3-5.5,18.8-6,27.6-1.5
		c8.8,4.6,14.4,13.5,14.7,23.4c0.3,9.9-4.8,19.2-13.4,24.2c-1.7,28.8-2.6,43.1-2.6,43.1c22.1-32.8,33.2-49.2,33.2-49.2
		c32.2-36.4,35.8-89.9,8.6-130.3c-17.5-36.7-52.2-62.2-92.4-67.9c-15.2-2.2-30.5-1.4-45.1,2.1C1758.1,733,1722.1,759.7,1713.9,799.3
		z"/>
	<path class="st16" d="M1713.9,799.3c2.9,48.9,41,73.6,114.3,74.2c-7.5-8.3-11.2-12.5-11.2-12.5c15.8,9.5,23.7,14.2,23.7,14.2
		l7.8,3.9l-19.6-19.1c25.1,5.4,53.4,4,84.9-4.4c-5.3-5.3-7.9-7.9-7.9-7.9c15.9,10.7,30.2,19.3,43,26c6.6-28.2,1.6-58.6-15.4-83.9
		c-17.5-36.7-52.2-62.2-92.4-67.9c-15.2-2.2-30.5-1.4-45.1,2.1C1758.1,733,1722.1,759.7,1713.9,799.3z"/>
	<path class="st17" d="M1564.2,1211.4c-7.6-9.3-31.8,0.1-72.7,28.2c-4,8.8-6.1,13.2-6.1,13.2
		C1527.1,1251.5,1553.4,1237.7,1564.2,1211.4z"/>
	<path class="st0" d="M1550.5,1203.9c-7.5-17.3-11.2-25.9-11.2-25.9c47-77.3,87.6-121,121.6-131.1c0,0,52.4-16,157.2-48.1
		c11.7,16.8,34.8,26.9,69.4,30.2c52.5,95.3,78.8,143,78.8,143c10.2,26,14.2,48.5,12.1,67.3c-18.5,180.1-90.9,331.3-217.4,453.8
		c-122.5-40.4-196.7-100.3-222.6-179.4c12.6-77.2,18.9-115.9,18.9-115.9c-56.3,30.8-97.1,26.9-122.4-11.8
		c-6.1-37.8-7.8-101.7-5.2-191.5c11.7-12,34.1,2,57.5,39.9C1521.8,1232,1542,1225.8,1550.5,1203.9z"/>
	<path class="st18" d="M1667.1,1045l151-46.2c11.7,16.8,34.8,26.9,69.4,30.2l67.6,122.6l-71.3-107.8c-27.3,6.7-67,2.5-83.5-27.9
		L1667.1,1045L1667.1,1045z"/>
	<linearGradient id="SVGID_6_" gradientUnits="userSpaceOnUse" x1="2350.592" y1="572.3386" x2="2428.6475" y2="968.8593">
		<stop  offset="0" style="stop-color:#6888C5"/>
		<stop  offset="1" style="stop-color:#83CDBC"/>
	</linearGradient>
	<path class="st19" d="M3316.1,528.5v587.1c-66.8-60.6-682.1,110.5-774.2,110.5c-147.7-0.1-215-92-297.7-89.7
		c-111.7,3-162.6,106.4-266,103c-153.8-5.1-238.9-216.4-425-83.8l-80.8-94.8c122.4-50.9,269.5,26.7,413.9-17.7
		c225.2-69.2,198.5-274.5,289.9-328.9c120.5-71.7,285.3,104.9,359.7,74C2635.9,746.5,3209.9,504,3316.1,528.5z"/>
	<linearGradient id="SVGID_7_" gradientUnits="userSpaceOnUse" x1="1704.1383" y1="967.8419" x2="2103.5239" y2="967.8419">
		<stop  offset="0" style="stop-color:#6888C5"/>
		<stop  offset="1" style="stop-color:#83CDBC"/>
	</linearGradient>
	<path class="st20" d="M1704.1,1078.6c59.9,5.9,121.3,8.9,182.3-9.8c140.3-43.1,182.8-139.1,217-218.4
		C2097.2,1033.6,1964,1109.6,1704.1,1078.6z"/>
	<linearGradient id="SVGID_8_" gradientUnits="userSpaceOnUse" x1="2784.627" y1="868.1272" x2="3742.3601" y2="868.1272">
		<stop  offset="0" style="stop-color:#6888C5"/>
		<stop  offset="1" style="stop-color:#83CDBC"/>
	</linearGradient>
	<path class="st21" d="M3742.4,736.3v162.4c-101.1,67.5-751.9,172.3-957.7,37.8c71.4,32.5,137.6,76,177.6,59.4
		C3062.1,954.4,3636.1,711.9,3742.4,736.3z"/>
	<linearGradient id="SVGID_9_" gradientUnits="userSpaceOnUse" x1="2432.22" y1="1066.0582" x2="2540.3914" y2="1394.1782">
		<stop  offset="0" style="stop-color:#6888C5"/>
		<stop  offset="1" style="stop-color:#83CDBC"/>
	</linearGradient>
	<path class="st22" d="M3316.1,967.8v147.7c-66.8-60.6-682.1,110.5-774.2,110.5c-147.7-0.1-215-92-297.7-89.7
		c-111.7,3-162.6,106.4-266,103c-153.8-5.1-238.9-216.4-425-83.8l-13-15.2c2-2.3,4-4.6,6-6.9c209.7-135.4,248.4,27,483.9-6.7
		c203.9-29.2,306.1-132.1,542.4-49.4C2667.6,1110.5,3278.1,1004.2,3316.1,967.8z"/>
	<g>
		<defs>
			<path id="SVGID_10_" d="M1494.6,1233.7c27.9-2.5,45.3-8.6,54-25.5c5.3,0.4,10.6,1.4,15.7,3.2c-11.6,31.3-37.9,45.1-78.8,41.4
				C1487.4,1245.9,1490.5,1239.5,1494.6,1233.7z"/>
		</defs>
		<clipPath id="SVGID_11_">
			<use xlink:href="#SVGID_10_"  style="overflow:visible;"/>
		</clipPath>
		<g style="clip-path:url(#SVGID_11_);">
			
				<image style="overflow:visible;" width="73" height="42" xlink:href="F8552856.jpg"  transform="matrix(1.0794 0 0 1.0762 1485.448 1208.2285)">
			</image>
		</g>
	</g>
	<path class="st23" d="M1847.6,1264.8c-34.3,16-51.5,23.9-51.5,23.9s-61.4-32.2-184.1-96.7c4.2-27.9,6.3-41.9,6.3-41.9
		C1771.1,1226.6,1847.6,1264.8,1847.6,1264.8z"/>
	<path class="st24" d="M1976.2,1258.3c-21.5,171.7-93.3,316.6-215.2,434.7c-30.4-10-57.8-21.2-82.2-33.7
		C1826.3,1606,1925.4,1472.3,1976.2,1258.3z"/>
	<path class="st18" d="M1656.3,1647.2c-61.2-35.7-100.5-80.3-118-133.6c12.6-77.2,18.9-115.9,18.9-115.9
		c23.4,69.3,66.9,98.5,130.3,87.9c57.7-10.7,125.3-46.7,202.9-107.9C1814.2,1507.2,1736.2,1597,1656.3,1647.2z"/>
	<path class="st24" d="M1538.8,1515l-0.5-1.4c12.6-77.2,18.9-115.9,18.9-115.9c23.4,69.3,66.9,98.5,130.3,87.9
		c57.7-10.7,125.3-46.7,202.9-107.9C1789.9,1485.3,1672.7,1531,1538.8,1515z"/>
	<path class="st18" d="M1649.2,1319.4l-50.4-64l0,0l0,0l-0.1-0.1l0-0.1l-0.1-0.1l-0.1-0.1l-0.1-0.2l-0.1-0.2l0-0.1l-0.2-0.3
		l-0.1-0.1l-0.8-1l-0.2-0.2l0,0l-0.8-1l0,0l-1.2-1.5l-0.8-1.1l-0.9-1.1l-1.7-2.1l-8.1-10.3l-0.3-0.3l-2-2.5l-17-21.6
		c-3-0.7-6.3-1.5-10-2.4c11.2-5.2,23.1-3.6,35.6,4.7l33-73.8l-18.1,86.6c4.5,4.7,9.1,10.2,13.8,16.6l0,0
		c19.1,18.1,30.1,38.2,45,51.9c4.5,3.7,8.7,6.7,12.5,9.2c7.9,4.4,17.2,7.2,28.9,7.7c9.4-2.2,18.5-9.5,31.1-19.5
		c51.8-41,89-50.3,111.5-27.7l-4.5,2.3l-5.6,2.9l-21.8,11.3l-0.3,0.2l-40,20.7l-2.7,1.4l-5,2.6l-0.9,0.5l-6,3.1l-1.5,0.8l-13.4,7
		l-4.9,2.5l-10.4,5.4l-1.4,0.7l-17.8,9.2C1687.4,1348.8,1666.7,1343.5,1649.2,1319.4z"/>
	<path class="st24" d="M1445.1,1191.1c11.8,3.7,26.7,18.2,42.1,43.2c2-0.1,3.9-0.3,5.8-0.4c-3.1,6.4-5.6,12.8-7.5,19
		c0,0,23.9,48.3,71.8,144.9c-29.5,0.3-50.2-11.1-62.1-34l-39.7-137.1c-10.9-4.9-18.9-14.9-23.9-30c6.6-3,9.8-4.5,9.8-4.5l5.9,6.4
		L1445.1,1191.1z"/>
	<path class="st25" d="M1440.9,1139.1c6.1-92.9,9.1-139.4,9.1-139.4c-22.2-30-26.1-54.8-11.5-74.5c-19.1,12.4-29.7,26.3-31.7,41.6
		c-9.4,86.8-14.1,130.2-14.1,130.2C1424.9,1125.1,1440.9,1139.1,1440.9,1139.1z"/>
	<path class="st26" d="M1450.1,999.7c-1.1-1.5-2.1-2.9-3.1-4.3c-13.5-19.1-23.2-36.5-29.2-52.2c-6.2,7.5-9.8,15.4-10.9,23.7
		c-9.4,86.8-14.1,130.2-14.1,130.2l31.8,27.7L1450.1,999.7z"/>
	<path class="st25" d="M1439,1168.1c7.3-112.2,11-168.4,11-168.4s-34.7-27.2-90.7-69.9c-12.1,106.9-11.5,166.3-11.5,166.3
		C1408.7,1144.1,1439,1168.1,1439,1168.1z"/>
	<path class="st26" d="M1439.8,1156.4l10.3-156.7l-97.8-53.1l-4.4,149.6l85.1,67.1C1435.3,1161.1,1437.6,1158.8,1439.8,1156.4z"/>
	<path class="st25" d="M1439.6,1144.8c7-96.7,10.5-145.1,10.5-145.1c79.6-11.5,119.4-17.2,119.4-17.2c10.2,12.1,15.3,18.1,15.3,18.1
		c-27.4,94.9-41.1,142.3-41.1,142.3C1474.3,1144.2,1439.6,1144.8,1439.6,1144.8z"/>
	<path class="st26" d="M1439.6,1144.8c7-96.7,10.5-145.1,10.5-145.1L1552,985l32.7,15.6c-27.4,94.9-41.1,142.3-41.1,142.3
		C1474.3,1144.2,1439.6,1144.8,1439.6,1144.8z"/>
	<polygon class="st5" points="1345.8,1132 1439,1168.1 1553.4,1155.5 1591.4,1000.7 1450.1,999.7 1345.8,969.7 	"/>
	<path class="st27" d="M1345.8,1132l81.7,31.6l8.6-115.2c-21.7,31.2-51.6,52.5-89.8,63.8L1345.8,1132z"/>
	<path class="st27" d="M1457.2,1166.1l96.2-10.6l3.5-14.4c-37.5-25.3-66.8-69.7-87.9-133.2L1457.2,1166.1z"/>
	<path class="st10" d="M1439.4,1203.3c-15.5-31.9-23.3-47.9-23.3-47.9c-4.5-8.7-5.9-15.5-4.3-20.3c-3.7-39.7-5.6-59.5-5.6-59.5
		c4.5-4.7,8.6-3.2,12.3,4.5c2,13.1,3,19.6,3,19.6c0.4-19.3,0.6-28.9,0.6-28.9c6.2-0.1,9.6,3.6,10.4,11l44,148.3
		C1468.9,1227.4,1456.6,1218.5,1439.4,1203.3z"/>
	<path class="st14" d="M1431.3,1076.6c0.6,1.5,1,3.2,1.2,5.3l21.2,71.4l-13-22.7C1440.6,1130.5,1425.4,1101.4,1431.3,1076.6z"/>
	<path class="st14" d="M1472.9,1218l3.6,12.1c-7.5-2.7-19.9-11.6-37.1-26.9C1452.5,1211.6,1463.7,1216.5,1472.9,1218z"/>
	<path class="st14" d="M1428.2,1150.1c7.6-2.3,15.8,1,19.8,8c3.9,6.9,2.5,15.7-3.3,21C1435.9,1173.9,1430.5,1164.3,1428.2,1150.1z"
		/>
	<path class="st14" d="M1418.5,1080.1c2,13.1,3,19.6,3,19.6c6.4,30.3,9.5,45.5,9.5,45.5c-6.9-10.1-10.3-15.2-10.3-15.2
		S1420,1113.4,1418.5,1080.1z"/>
	<path class="st10" d="M1439.6,1144.8c-11.4-11.6-17-17.5-17-17.5c-3,3-3.2,7.1-0.6,12.3c0,0,7.2,11.9,21.6,35.8
		c4.4,14.6,10.3,24.3,17.7,28.9c11.5,12.4,23.6,26.6,36.2,42.7c24.1,0.8,43.9-9.9,59.5-32.4c0,0-5.9-12.2-17.7-36.7
		c-1.7-7.9-4.1-14.6-7.1-20.2l-6.1,0.7l-13.1-9l-0.1,0.1c-1.2-0.7-2.4-1.6-3.7-2.7c-3.7-3.1-8.1-7.8-13.1-14.1c0,0-5-9.9-15.1-29.8
		c0,0-3.9-6.6-11.6-19.8c-1.8-2.9-5.4-4.3-8.7-3.4c-3.3,1-5.6,4-5.6,7.5c-3.2-3.7-8.6-4.5-12.7-1.9c-4.1,2.6-5.7,7.8-3.7,12.3
		c5.8,17.8,8.6,26.7,8.6,26.7c-8.8-16.7-13.2-25-13.2-25c-5.4,1.5-8.6,7-7.3,12.5C1435.4,1133.8,1439.6,1144.8,1439.6,1144.8z"/>
	<path class="st14" d="M1449.9,1191.4c3.3,5.9,7,10.2,11.2,12.9c11.5,12.4,23.6,26.6,36.2,42.7c24.1,0.8,43.9-9.9,59.5-32.4
		l-14.4-29.9h0c0,0,1.9,8.1,5.6,24.3c-9.9,16-27.9,25.3-46.7,24C1501.4,1233,1484.2,1219.2,1449.9,1191.4z"/>
	<path class="st14" d="M1529.4,1158.1l-3.3,0.4l-13.1-9l-0.1,0.1c-1.2-0.7-2.4-1.6-3.7-2.7c-3.7-3.1-8.1-7.8-13.1-14.1
		c12.6,17.6,23.5,28.8,32.8,33.6L1529.4,1158.1z"/>
	<path class="st14" d="M1439.6,1144.8l-12.4-12.7c0,0,7.1,10.5,21.3,31.5C1448.5,1163.6,1445.6,1157.3,1439.6,1144.8z"/>
	<path class="st14" d="M1438.1,1095.6c0.1,0.7,0.4,1.3,0.6,1.9c5.8,17.8,8.6,26.7,8.6,26.7l-12.3-23.4c7.3,19.9,17.4,38.1,30.3,54.7
		c0,0-4.5-8.8-13.4-26.3L1438.1,1095.6z"/>
	<path class="st14" d="M1456.6,1082.6c-1,1.3-1.5,2.9-1.5,4.7c-0.8-1-1.8-1.7-2.8-2.3l8.2,23.1c-0.5,6.8,2,13.2,7.5,19.3
		c0,0,4.7,6.4,14.2,19.3c0,0-3.5-7.1-10.5-21.2c-2.1-2.7-4.1-6.7-5.9-11.8C1465.9,1113.7,1462.8,1103.3,1456.6,1082.6z"/>
	<g>
		<path class="st10" d="M1201.8,2187.8c-11.9,17.3-17.9,25.9-17.9,25.9c-35.3,2.9-61.2-10.1-65.9-48.3c8.8-18.2,13.2-27.4,13.2-27.4
			C1147.8,2166.6,1171.4,2183.1,1201.8,2187.8z"/>
		<path class="st11" d="M1190.3,2215.7c0.6-2.3-0.3-4.7-2.7-7.4c0,0-16.3-2.1-48.9-6.3c-2.5-22.8-13.5-38.8-33-47.9
			c-35.5,12.6-53.3,18.9-53.3,18.9c-50.3,2.8-72.7,15.5-87.7,47.6c1.3,9.5,9.6,32.1,46.7,39.2c98.5,7.8,147.7,11.7,147.7,11.7
			C1179.9,2234.3,1190.3,2215.7,1190.3,2215.7z"/>
		<path class="st28" d="M971,2209c-2.3,3.6-4.4,7.4-6.3,11.6c1.3,9.5,9.6,32.1,46.7,39.2c98.5,7.8,147.7,11.7,147.7,11.7l8.3-14.8
			l-141-12.7C1002.2,2238.8,983.7,2227.2,971,2209z"/>
	</g>
	<path class="st11" d="M929.6,1965.5c1.3-1.8,1.3-4.2,0.1-7.3c0,0-13.6-7.1-40.7-21.3c5.2-20.8,0.7-38.3-13.4-52.5
		c-35.1-0.4-52.7-0.7-52.7-0.7c-44.8-13.8-68.5-10-92.1,13.3c-2,8.7-2,31.2,28.2,49.3c83.6,38.6,125.3,57.9,125.3,57.9
		C914.5,1978.4,929.6,1965.5,929.6,1965.5z"/>
	<path class="st28" d="M738.8,1889.9c-2.7,2.1-5.3,4.5-8,7.1c-2,8.7-2,31.2,28.2,49.3c83.6,38.6,125.3,57.9,125.3,57.9l11.4-9.7
		l-123.6-57.8C753.1,1926.2,742,1910.6,738.8,1889.9z"/>
	<path class="st15" d="M963.9,1380.7c-0.5-1.5,0.4-3.1,1.9-3.6c1.5-0.5,3.1,0.4,3.6,1.9l0,0l0.1,0.2c3.3,12.3,6.6,24.7,13.6,37.8
		c2.5,4.6,5.6,9.6,8.7,14.7c5.8,9.3,11.8,19,15.8,29.4c5.1,13.4,6.6,27.5,8.1,40.6c0.3,2.6,0.6,5.1,0.9,8c0.9,7.3,2,14.1,3.6,20.7
		c1.6,6.6,3.7,13,6.7,19.6c3,6.6,6.8,13.5,11.3,20.6c4.5,7.1,9.7,14.3,15.2,21.6c3.3,4.2,6.7,8.5,10.2,12.8
		c-1.2,1.6-2.3,3.2-3.5,4.8c-3.9-4.7-7.7-9.4-11.3-14.1c-5.7-7.5-11-14.8-15.5-22c-4.6-7.2-8.5-14.4-11.6-21.3
		c-3.1-7-5.4-13.7-7-20.5c-1.7-6.9-2.8-13.8-3.7-21.4c-0.3-2.3-0.6-5.2-0.9-8c-1.4-12.7-2.9-26.4-7.7-39.1
		c-3.8-9.9-9.7-19.4-15.3-28.4c-3.2-5.1-6.2-10-8.9-15C970.7,1406,967.3,1393.3,963.9,1380.7L963.9,1380.7L963.9,1380.7z"/>
	<path class="st15" d="M1134.1,1538l0.1-0.4c0.5-2.5,1-4.6,1.4-6.6c3.6-16.3,7.1-32.5,4.2-46.7c-2-10-7.4-19.5-12.8-29l-0.1-0.2
		c-3.3-5.9-6.7-11.9-9.3-18.1c-3.6-8.4-5.9-17.1-6.9-25.8c-1-8.8-0.7-17.7,0.9-26.2c1.7-9.1,4.9-17.7,8.1-26c2.5-6.7,5-13.4,6.6-20
		c1.6-6.8,2.2-13.6,2-20.3c-0.2-7.5-1.3-14.9-3-21.9c-1.6-6.7-3.8-13-6.3-19.2c-2.4-6.1-5.2-12.3-8-18.4c-0.7-1.4,0-3.1,1.4-3.8
		c1.4-0.7,3.1,0,3.8,1.4c2.8,6.1,5.5,12.2,8.1,18.7c2.6,6.4,4.8,13,6.5,20c1.8,7.4,3,15.2,3.2,23.2c0.2,7.2-0.5,14.5-2.2,21.7
		c-1.6,6.9-4.2,13.7-6.8,20.7c-3,8.1-6.2,16.4-7.8,25.1c-1.5,7.9-1.7,16.2-0.8,24.5c1,8.2,3.1,16.4,6.4,24.2c2.6,6,5.8,11.8,9,17.5
		c0,0.1,0.1,0.1,0.1,0.2c5.6,9.9,11.1,19.8,13.4,30.7c3.2,15.4-0.5,32.2-4.2,49l-0.3,1.2C1138.7,1534.9,1136.4,1536.4,1134.1,1538z"
		/>
	<path class="st15" d="M1280.3,1317.6c0.2-1.6,1.7-2.7,3.2-2.4s2.7,1.7,2.4,3.2l0,0l0,0.1c-1.1,8.6-2.3,17.1-7.5,26.8
		c-3.5,6.4-8.6,13.2-13.7,19.8c-2.5,3.2-4.9,6.4-6.9,9.2c-3.1,4.4-5.6,8.4-7.6,12.9c-2,4.4-3.6,9.2-4.9,14.9
		c-1.2,5.5-2.2,12.2-3.2,19.1c-1.1,7.4-2.2,15-3.8,21.8l0,0h0c-1.5,6.6-3.4,12.3-5.6,17.3c-2.2,5.1-4.7,9.4-7.4,13.1
		c-2.2,3-4.6,5.7-6.9,8.3l0,0c-3.1,3.4-6.1,6.8-8.7,11.1c-1.7,2.8-3.3,6-4.6,9.3c-2.4,0.8-4.8,1.7-7.2,2.6l0.5-1.4
		c1.8-4.5,3.9-9.4,6.4-13.4c2.9-4.8,6.1-8.3,9.3-11.9l0,0l0,0c2.2-2.5,4.4-5,6.6-7.9c2.5-3.4,4.8-7.4,6.8-12
		c2.1-4.7,3.8-10.1,5.3-16.3h0c1.5-6.5,2.6-14,3.7-21.4c1-6.8,2-13.5,3.3-19.5c1.4-6.2,3.1-11.3,5.3-16.1c2.2-4.7,4.8-9.1,8.2-13.8
		c2.3-3.2,4.6-6.3,7-9.4c4.9-6.4,9.9-13,13.2-19c4.7-8.8,5.8-16.9,6.9-24.9L1280.3,1317.6L1280.3,1317.6z"/>
	<line class="st29" x1="1236.5" y1="1840.2" x2="1214.3" y2="1835.4"/>
	<line class="st29" x1="1468.6" y1="1889.9" x2="1415.8" y2="1878.6"/>
	<path class="st11" d="M1328.6,1771.6c-9.8,6.4-16.5,21.2-37.2,53.4c-1.2,1.8-2.3,3.6-3.4,5.4h-35.1v8.5l-10.7-8.5
		c-9.6,10.8-14.8,30.5-32.8,75.5c-69.1,173.4-103.7,260-103.7,260c11.3,23.7,35.8,36.6,63.8,33.6c68.7-107.7,117.7-184.5,147-230.6
		c67.9-65.6,101.8-98.4,101.8-98.4c0.8,0.3,1.7,0.7,2.5,1L1328.6,1771.6z"/>
	<path class="st13" d="M1373.8,1891.6c0,0-61.5,104.9-184.4,314.8c-26.1,0.6-50.8-10.2-68.2-28.8l188.2-252.9
		C1331.4,1915.6,1352.9,1904.5,1373.8,1891.6z"/>
</g>
</svg>
